<?xml version="1.0" encoding="UTF-8"?>
<svg xmlns="http://www.w3.org/2000/svg" xmlns:xlink="http://www.w3.org/1999/xlink" width="80pt" height="28pt" viewBox="0 0 80 28" version="1.1">
<g id="surface1">
<path style=" stroke:none;fill-rule:nonzero;fill:rgb(0%,20.784314%,50.588235%);fill-opacity:1;" d="M 31.328125 27.78125 L 30.917969 26.488281 L 28.546875 26.488281 L 28.089844 27.78125 L 26.648438 27.78125 L 28.953125 21.503906 L 30.507812 21.503906 L 32.785156 27.78125 Z M 29.722656 22.910156 L 28.894531 25.40625 L 30.539062 25.40625 Z M 29.722656 22.910156 "/>
<path style=" stroke:none;fill-rule:nonzero;fill:rgb(0%,20.784314%,50.588235%);fill-opacity:1;" d="M 38.113281 25.625 C 38.050781 25.96875 37.933594 26.300781 37.773438 26.613281 C 37.625 26.886719 37.421875 27.136719 37.183594 27.339844 C 36.941406 27.550781 36.664062 27.714844 36.359375 27.820312 C 36.035156 27.9375 35.6875 27.996094 35.34375 27.992188 C 34.9375 27.996094 34.535156 27.925781 34.160156 27.785156 C 33.796875 27.652344 33.472656 27.4375 33.210938 27.160156 C 32.933594 26.863281 32.71875 26.515625 32.582031 26.136719 C 32.417969 25.675781 32.332031 25.191406 32.339844 24.707031 C 32.332031 24.226562 32.402344 23.746094 32.542969 23.285156 C 32.664062 22.890625 32.871094 22.523438 33.140625 22.207031 C 33.402344 21.917969 33.726562 21.695312 34.089844 21.546875 C 34.488281 21.382812 34.914062 21.304688 35.34375 21.308594 C 35.714844 21.304688 36.085938 21.367188 36.4375 21.488281 C 36.75 21.589844 37.039062 21.746094 37.289062 21.953125 C 37.523438 22.152344 37.71875 22.402344 37.855469 22.675781 C 37.992188 22.957031 38.082031 23.257812 38.113281 23.566406 L 36.757812 23.566406 C 36.683594 23.238281 36.5 22.945312 36.234375 22.730469 C 35.914062 22.492188 35.507812 22.390625 35.109375 22.449219 C 34.710938 22.503906 34.351562 22.710938 34.113281 23.023438 C 33.820312 23.515625 33.679688 24.078125 33.710938 24.648438 C 33.675781 25.222656 33.8125 25.792969 34.109375 26.292969 C 34.363281 26.679688 34.816406 26.902344 35.289062 26.875 C 35.644531 26.890625 35.988281 26.773438 36.257812 26.546875 C 36.519531 26.304688 36.699219 25.984375 36.757812 25.636719 Z M 38.113281 25.625 "/>
<path style=" stroke:none;fill-rule:nonzero;fill:rgb(0%,20.784314%,50.588235%);fill-opacity:1;" d="M 42.257812 27.78125 L 42.257812 24.960938 L 39.734375 24.960938 L 39.734375 27.78125 L 38.382812 27.78125 L 38.382812 21.503906 L 39.734375 21.503906 L 39.734375 23.867188 L 42.257812 23.867188 L 42.257812 21.503906 L 43.621094 21.503906 L 43.621094 27.78125 Z M 42.257812 27.78125 "/>
<path style=" stroke:none;fill-rule:nonzero;fill:rgb(0%,20.784314%,50.588235%);fill-opacity:1;" d="M 44.097656 21.503906 L 45.449219 21.503906 L 45.449219 27.78125 L 44.097656 27.78125 Z M 44.097656 21.503906 "/>
<path style=" stroke:none;fill-rule:nonzero;fill:rgb(0%,20.784314%,50.588235%);fill-opacity:1;" d="M 49.683594 27.78125 L 49.683594 26.164062 C 49.710938 25.925781 49.632812 25.6875 49.46875 25.507812 C 49.234375 25.351562 48.953125 25.285156 48.671875 25.316406 L 47.230469 25.316406 L 47.230469 27.773438 L 45.914062 27.773438 L 45.914062 21.503906 L 49.195312 21.503906 C 49.472656 21.5 49.75 21.546875 50.011719 21.640625 C 50.242188 21.726562 50.457031 21.855469 50.636719 22.019531 C 50.8125 22.179688 50.949219 22.375 51.039062 22.59375 C 51.136719 22.824219 51.183594 23.070312 51.183594 23.320312 C 51.1875 23.636719 51.101562 23.949219 50.933594 24.222656 C 50.769531 24.484375 50.515625 24.679688 50.21875 24.773438 C 50.460938 24.835938 50.679688 24.980469 50.828125 25.179688 C 50.964844 25.433594 51.023438 25.71875 51.007812 26.003906 L 51.007812 27.78125 Z M 47.230469 22.589844 L 47.230469 24.265625 L 48.925781 24.265625 C 49.203125 24.292969 49.480469 24.207031 49.691406 24.027344 C 49.84375 23.863281 49.921875 23.652344 49.914062 23.429688 C 49.925781 23.210938 49.847656 22.996094 49.699219 22.828125 C 49.503906 22.652344 49.238281 22.566406 48.972656 22.589844 Z M 47.230469 22.589844 "/>
<path style=" stroke:none;fill-rule:nonzero;fill:rgb(0%,20.784314%,50.588235%);fill-opacity:1;" d="M 56.027344 27.78125 L 55.621094 26.488281 L 53.246094 26.488281 L 52.789062 27.78125 L 51.359375 27.78125 L 53.667969 21.503906 L 55.234375 21.503906 L 57.511719 27.78125 Z M 54.421875 22.910156 L 53.597656 25.40625 L 55.242188 25.40625 Z M 54.421875 22.910156 "/>
<path style=" stroke:none;fill-rule:nonzero;fill:rgb(0%,20.784314%,50.588235%);fill-opacity:1;" d="M 61.820312 27.78125 L 59.054688 23.5625 L 59.054688 27.78125 L 57.800781 27.78125 L 57.800781 21.503906 L 59.230469 21.503906 L 61.800781 25.542969 L 61.800781 21.503906 L 63.0625 21.503906 L 63.0625 27.78125 Z M 61.820312 27.78125 "/>
<path style=" stroke:none;fill-rule:nonzero;fill:rgb(0%,20.784314%,50.588235%);fill-opacity:1;" d="M 68.039062 27.78125 L 67.628906 26.488281 L 65.257812 26.488281 L 64.800781 27.78125 L 63.355469 27.78125 L 65.664062 21.503906 L 67.230469 21.503906 L 69.507812 27.78125 Z M 66.441406 22.910156 L 65.613281 25.40625 L 67.257812 25.40625 Z M 66.441406 22.910156 "/>
<path style=" stroke:none;fill-rule:nonzero;fill:rgb(0%,20.784314%,50.588235%);fill-opacity:1;" d="M 30.730469 18.066406 L 30.707031 17.5625 C 30.566406 17.789062 30.351562 17.964844 30.097656 18.066406 C 29.796875 18.1875 29.46875 18.25 29.140625 18.246094 C 28.796875 18.25 28.457031 18.171875 28.15625 18.019531 C 27.867188 17.871094 27.609375 17.664062 27.40625 17.414062 C 27.195312 17.152344 27.035156 16.855469 26.929688 16.539062 C 26.824219 16.207031 26.773438 15.863281 26.78125 15.515625 C 26.777344 15.160156 26.835938 14.804688 26.945312 14.464844 C 27.050781 14.148438 27.214844 13.855469 27.433594 13.601562 C 27.65625 13.351562 27.929688 13.152344 28.242188 13.023438 C 28.875 12.769531 29.578125 12.742188 30.230469 12.941406 C 30.488281 13.019531 30.726562 13.144531 30.9375 13.300781 C 31.136719 13.453125 31.304688 13.636719 31.429688 13.851562 C 31.554688 14.066406 31.628906 14.304688 31.648438 14.550781 L 30.527344 14.550781 C 30.507812 14.433594 30.464844 14.320312 30.398438 14.222656 C 30.332031 14.117188 30.242188 14.023438 30.140625 13.949219 C 30.027344 13.871094 29.90625 13.808594 29.773438 13.765625 C 29.632812 13.71875 29.488281 13.695312 29.34375 13.695312 C 28.933594 13.679688 28.539062 13.855469 28.28125 14.164062 C 27.992188 14.570312 27.851562 15.0625 27.882812 15.554688 C 27.886719 15.769531 27.914062 15.980469 27.964844 16.1875 C 28.015625 16.394531 28.105469 16.589844 28.226562 16.765625 C 28.34375 16.933594 28.5 17.078125 28.679688 17.183594 C 28.878906 17.292969 29.105469 17.347656 29.335938 17.339844 C 29.503906 17.34375 29.671875 17.316406 29.832031 17.253906 C 30.132812 17.140625 30.375 16.917969 30.507812 16.632812 C 30.574219 16.492188 30.609375 16.339844 30.609375 16.183594 L 29.453125 16.183594 L 29.453125 15.335938 L 31.636719 15.335938 L 31.636719 18.066406 Z M 30.730469 18.066406 "/>
<path style=" stroke:none;fill-rule:nonzero;fill:rgb(0%,20.784314%,50.588235%);fill-opacity:1;" d="M 35.066406 18.066406 L 35.066406 16.75 C 35.085938 16.558594 35.023438 16.371094 34.894531 16.226562 C 34.703125 16.101562 34.46875 16.046875 34.238281 16.074219 L 33.082031 16.074219 L 33.082031 18.066406 L 32.015625 18.066406 L 32.015625 12.980469 L 34.671875 12.980469 C 34.902344 12.976562 35.132812 13.011719 35.347656 13.089844 C 35.535156 13.160156 35.710938 13.265625 35.859375 13.398438 C 36.003906 13.527344 36.121094 13.6875 36.195312 13.863281 C 36.273438 14.050781 36.3125 14.25 36.3125 14.453125 C 36.316406 14.707031 36.246094 14.960938 36.113281 15.183594 C 35.980469 15.394531 35.773438 15.550781 35.53125 15.628906 C 35.730469 15.679688 35.90625 15.796875 36.023438 15.960938 C 36.132812 16.164062 36.183594 16.390625 36.167969 16.617188 L 36.167969 18.058594 Z M 33.082031 13.863281 L 33.082031 15.21875 L 34.4375 15.21875 C 34.664062 15.242188 34.890625 15.171875 35.0625 15.023438 C 35.1875 14.894531 35.253906 14.722656 35.242188 14.542969 C 35.25 14.363281 35.1875 14.1875 35.0625 14.050781 C 34.90625 13.910156 34.691406 13.839844 34.476562 13.863281 Z M 33.082031 13.863281 "/>
<path style=" stroke:none;fill-rule:nonzero;fill:rgb(0%,20.784314%,50.588235%);fill-opacity:1;" d="M 39.660156 12.980469 L 40.78125 12.980469 L 40.78125 16.375 C 40.828125 16.902344 40.625 17.421875 40.230469 17.789062 C 39.300781 18.410156 38.074219 18.421875 37.128906 17.816406 C 36.738281 17.472656 36.53125 16.96875 36.574219 16.453125 L 36.574219 12.980469 L 37.683594 12.980469 L 37.683594 16.335938 C 37.667969 16.605469 37.753906 16.875 37.929688 17.085938 C 38.101562 17.273438 38.351562 17.375 38.605469 17.363281 C 39.304688 17.363281 39.652344 17.035156 39.652344 16.375 Z M 39.660156 12.980469 "/>
<path style=" stroke:none;fill-rule:nonzero;fill:rgb(0%,20.784314%,50.588235%);fill-opacity:1;" d="M 41.191406 18.066406 L 41.191406 12.980469 L 43.503906 12.980469 C 43.738281 12.976562 43.96875 13.019531 44.183594 13.105469 C 44.382812 13.1875 44.5625 13.304688 44.710938 13.460938 C 44.859375 13.609375 44.976562 13.789062 45.050781 13.984375 C 45.132812 14.195312 45.175781 14.417969 45.167969 14.640625 C 45.171875 14.859375 45.132812 15.078125 45.050781 15.28125 C 44.976562 15.472656 44.863281 15.644531 44.710938 15.785156 C 44.5625 15.929688 44.382812 16.042969 44.183594 16.113281 C 43.964844 16.195312 43.738281 16.234375 43.503906 16.234375 L 42.292969 16.234375 L 42.292969 18.082031 Z M 43.332031 15.355469 C 43.578125 15.378906 43.824219 15.300781 44.011719 15.144531 C 44.152344 14.996094 44.226562 14.800781 44.21875 14.597656 C 44.222656 14.402344 44.148438 14.210938 44.011719 14.070312 C 43.820312 13.914062 43.578125 13.839844 43.332031 13.863281 L 42.292969 13.863281 L 42.292969 15.355469 Z M 43.332031 15.355469 "/>
<path style=" stroke:none;fill-rule:nonzero;fill:rgb(0%,20.784314%,50.588235%);fill-opacity:1;" d="M 47.859375 18.246094 C 47.164062 18.289062 46.480469 18.039062 45.992188 17.554688 C 45.527344 17 45.292969 16.292969 45.34375 15.578125 C 45.335938 15.183594 45.390625 14.792969 45.507812 14.417969 C 45.605469 14.097656 45.773438 13.800781 45.996094 13.546875 C 46.210938 13.308594 46.476562 13.121094 46.78125 13 C 47.46875 12.746094 48.230469 12.746094 48.921875 13 C 49.226562 13.117188 49.492188 13.308594 49.707031 13.546875 C 49.925781 13.804688 50.089844 14.101562 50.1875 14.425781 C 50.300781 14.804688 50.359375 15.199219 50.351562 15.59375 C 50.351562 16.472656 50.140625 17.132812 49.710938 17.570312 C 49.21875 18.035156 48.542969 18.277344 47.855469 18.230469 M 47.855469 17.316406 C 48.042969 17.316406 48.230469 17.28125 48.40625 17.210938 C 48.578125 17.144531 48.734375 17.035156 48.859375 16.898438 C 48.996094 16.742188 49.101562 16.558594 49.164062 16.359375 C 49.242188 16.105469 49.277344 15.84375 49.269531 15.578125 C 49.304688 15.09375 49.179688 14.613281 48.910156 14.203125 C 48.65625 13.890625 48.261719 13.714844 47.855469 13.738281 C 47.4375 13.714844 47.035156 13.898438 46.78125 14.222656 C 46.503906 14.625 46.375 15.109375 46.40625 15.59375 C 46.367188 16.0625 46.5 16.53125 46.78125 16.910156 C 47.054688 17.199219 47.445312 17.355469 47.84375 17.332031 "/>
<path style=" stroke:none;fill-rule:nonzero;fill:rgb(0%,20.784314%,50.588235%);fill-opacity:1;" d="M 13.148438 9.402344 L 13.148438 16.308594 L 16.917969 16.308594 L 16.917969 21.09375 L 0 21.109375 L 0 28 L 24.027344 28 L 24.027344 9.402344 Z M 13.148438 9.402344 "/>
<path style=" stroke:none;fill-rule:nonzero;fill:rgb(0%,20.784314%,50.588235%);fill-opacity:1;" d="M 21.890625 0 L 0 0 L 0 19.195312 L 7.109375 19.195312 L 7.109375 6.90625 L 24.027344 6.914062 L 24.027344 0 Z M 21.890625 0 "/>
</g>
</svg>
